<svg width="31" height="31" viewBox="0 0 31 31" fill="none" xmlns="http://www.w3.org/2000/svg">
                        <path d="M10.3346 15.5C10.3346 12.6466 12.6471 10.3329 15.5006 10.3329C18.3541 10.3329 20.6679 12.6466 20.6679 15.5C20.6679 18.3534 18.3541 20.6671 15.5006 20.6671C12.6471 20.6671 10.3346 18.3534 10.3346 15.5ZM7.54124 15.5C7.54124 19.8958 11.1046 23.4591 15.5006 23.4591C19.8966 23.4591 23.46 19.8958 23.46 15.5C23.46 11.1042 19.8966 7.54094 15.5006 7.54094C11.1046 7.54094 7.54124 11.1042 7.54124 15.5ZM21.915 7.22536C21.9149 7.59323 22.0238 7.95289 22.2281 8.25884C22.4324 8.5648 22.7228 8.80332 23.0626 8.94423C23.4024 9.08515 23.7764 9.12213 24.1373 9.05051C24.4981 8.97888 24.8296 8.80187 25.0898 8.54184C25.3501 8.28182 25.5274 7.95047 25.5993 7.5897C25.6712 7.22892 25.6345 6.85492 25.4939 6.515C25.3532 6.17507 25.1149 5.88448 24.8091 5.67998C24.5033 5.47548 24.1437 5.36625 23.7758 5.3661H23.7751C23.282 5.36633 22.8091 5.56227 22.4603 5.91087C22.1116 6.25948 21.9155 6.73225 21.915 7.22536V7.22536ZM9.23837 28.1166C7.72712 28.0478 6.90571 27.7961 6.35984 27.5834C5.63615 27.3017 5.11979 26.9662 4.5769 26.424C4.03401 25.8819 3.69795 25.3661 3.41745 24.6424C3.20466 24.0968 2.95293 23.2752 2.88423 21.764C2.80908 20.1302 2.79408 19.6394 2.79408 15.5001C2.79408 11.3609 2.81032 10.8715 2.88423 9.23626C2.95305 7.72508 3.20664 6.90506 3.41745 6.35785C3.69919 5.63419 4.03475 5.11785 4.5769 4.57498C5.11905 4.03211 5.63491 3.69607 6.35984 3.41558C6.90546 3.2028 7.72712 2.95108 9.23837 2.88238C10.8723 2.80724 11.3631 2.79223 15.5006 2.79223C19.6382 2.79223 20.1295 2.80848 21.7647 2.88238C23.276 2.9512 24.096 3.20478 24.6433 3.41558C25.367 3.69607 25.8833 4.03285 26.4262 4.57498C26.9691 5.11711 27.3039 5.63419 27.5856 6.35785C27.7984 6.90345 28.0502 7.72508 28.1189 9.23626C28.194 10.8715 28.209 11.3609 28.209 15.5001C28.209 19.6394 28.194 20.1288 28.1189 21.764C28.05 23.2752 27.7971 24.0965 27.5856 24.6424C27.3039 25.3661 26.9684 25.8824 26.4262 26.424C25.8841 26.9657 25.367 27.3017 24.6433 27.5834C24.0976 27.7962 23.276 28.0479 21.7647 28.1166C20.1308 28.1918 19.64 28.2068 15.5006 28.2068C11.3612 28.2068 10.8718 28.1918 9.23837 28.1166V28.1166ZM9.11003 0.093868C7.45989 0.169012 6.33231 0.430652 5.34759 0.813812C4.32777 1.2095 3.46445 1.74034 2.60175 2.60164C1.73905 3.46295 1.20954 4.3276 0.813845 5.34738C0.430669 6.33268 0.169019 7.45959 0.0938718 9.10966C0.0174847 10.7623 0 11.2907 0 15.5C0 19.7093 0.0174847 20.2377 0.0938718 21.8903C0.169019 23.5405 0.430669 24.6673 0.813845 25.6526C1.20954 26.6718 1.73917 27.5374 2.60175 28.3984C3.46433 29.2593 4.32777 29.7894 5.34759 30.1862C6.33417 30.5694 7.45989 30.831 9.11003 30.9061C10.7636 30.9813 11.2911 31 15.5006 31C19.7101 31 20.2385 30.9825 21.8912 30.9061C23.5415 30.831 24.6683 30.5694 25.6537 30.1862C26.6728 29.7894 27.5368 29.2597 28.3995 28.3984C29.2622 27.5371 29.7906 26.6718 30.1874 25.6526C30.5706 24.6673 30.8335 23.5404 30.9074 21.8903C30.9825 20.2364 31 19.7093 31 15.5C31 11.2907 30.9825 10.7623 30.9074 9.10966C30.8322 7.45947 30.5706 6.33206 30.1874 5.34738C29.7906 4.32822 29.2608 3.46431 28.3995 2.60164C27.5382 1.73898 26.6728 1.2095 25.6549 0.813812C24.6683 0.430652 23.5414 0.167772 21.8925 0.093868C20.2397 0.018724 19.7113 0 15.5019 0C11.2924 0 10.7636 0.017484 9.11003 0.093868Z" fill="#F5F5F5" />
                    </svg>