<svg width="37" height="31" viewBox="0 0 37 31" fill="none" xmlns="http://www.w3.org/2000/svg">
                        <path d="M2.26841 13.5006C2.26841 13.5006 18.6326 6.6955 24.308 4.29926C26.4837 3.34084 33.8617 0.27365 33.8617 0.27365C33.8617 0.27365 37.267 -1.06813 36.9832 2.19061C36.8885 3.53253 36.1319 8.22896 35.3752 13.3089C34.24 20.4975 33.0104 28.3569 33.0104 28.3569C33.0104 28.3569 32.8212 30.5614 31.2132 30.9448C29.6052 31.3282 26.9565 29.603 26.4837 29.2195C26.1052 28.9321 19.3893 24.6189 16.93 22.5102C16.2678 21.9352 15.5111 20.7851 17.0245 19.4431C20.4298 16.2802 24.4972 12.3505 26.9565 9.85847C28.0917 8.70823 29.2267 6.02454 24.4972 9.28328C17.7813 13.9798 11.1599 18.3888 11.1599 18.3888C11.1599 18.3888 9.64644 19.3472 6.80876 18.4846C3.97094 17.6221 0.660263 16.4719 0.660263 16.4719C0.660263 16.4719 -1.60978 15.0342 2.26841 13.5006Z" fill="#F5F5F5" />
                    </svg>