<svg width="31" height="34" viewBox="0 0 31 34" fill="none" xmlns="http://www.w3.org/2000/svg">
                        <path d="M7.50079 29.9391C7.50079 29.3841 7.50079 28.8291 7.50079 28.274C7.50474 28.2513 7.50394 28.2281 7.49845 28.2057C7.49296 28.1834 7.48289 28.1623 7.46887 28.144C7.45486 28.1256 7.43718 28.1103 7.41695 28.099C7.39672 28.0876 7.37436 28.0806 7.35125 28.0781C5.96291 27.6873 4.68149 26.9911 3.60248 26.0414C2.81631 25.3328 2.16173 24.493 1.66854 23.5602C0.973386 22.2127 0.510756 20.7595 0.299821 19.2607C0.0384711 17.3806 -0.0522948 15.4811 0.0286118 13.5849C0.0463544 12.7009 0.0919783 11.8269 0.193365 10.9429C0.355057 9.26306 0.782739 7.61889 1.4607 6.07084C2.29784 4.16746 3.81655 2.63854 5.724 1.77888C7.02335 1.18973 8.39031 0.759625 9.79466 0.49807C11.1719 0.239606 12.5662 0.0809679 13.9667 0.0234169C15.2291 -0.020816 16.493 -0.00237608 17.7535 0.0786675C19.5576 0.154121 21.3454 0.450197 23.0763 0.960165C24.3596 1.32669 25.5804 1.88113 26.6983 2.60513C27.7876 3.34601 28.6686 4.34942 29.2583 5.52085C29.9517 6.88903 30.423 8.35695 30.6549 9.87057C30.8056 10.7692 30.9046 11.6756 30.9515 12.5854C31.0174 13.713 31.0098 14.8456 30.9667 15.9682C30.9236 17.0908 30.8273 18.1808 30.6879 19.2808C30.5117 20.9317 29.9995 22.5302 29.1823 23.9796C28.1186 25.813 26.4147 27.1976 24.3918 27.8722C23.0086 28.3522 21.5803 28.6937 20.1285 28.8918C19.0665 29.0375 18.0019 29.143 16.9323 29.1857C16.1136 29.2233 15.2949 29.2133 14.4762 29.2007C14.0123 29.2007 13.551 29.1555 13.0897 29.1154C13.0444 29.1069 12.9976 29.1119 12.9552 29.1298C12.9128 29.1477 12.8767 29.1776 12.8515 29.2158C11.9187 30.3258 10.9505 31.4057 9.97462 32.4806C9.79687 32.6767 9.59106 32.8459 9.36377 32.9829C9.21457 33.0799 9.04444 33.1407 8.86712 33.1606C8.6898 33.1804 8.51026 33.1586 8.343 33.097C8.17573 33.0354 8.02543 32.9357 7.90423 32.806C7.78303 32.6762 7.69432 32.52 7.64527 32.35C7.54868 32.0479 7.50078 31.7327 7.50333 31.4158C7.50079 30.9185 7.50079 30.4288 7.50079 29.9391ZM8.62872 32.0461L8.74785 31.9356L10.8643 29.6076C11.6788 28.7119 12.4924 27.8153 13.3052 26.9179C13.3451 26.8631 13.399 26.8199 13.4614 26.7925C13.5237 26.7652 13.5923 26.7547 13.66 26.7622C13.9363 26.7898 14.2126 26.7998 14.4914 26.8024C15.4546 26.8024 16.4177 26.8024 17.3809 26.7346C18.2554 26.6667 19.1273 26.5613 19.9941 26.4257C20.9275 26.2647 21.8514 26.0542 22.762 25.7953C24.7897 25.2553 26.3587 24.1001 27.3447 22.2291C27.9268 21.0788 28.2918 19.8328 28.4219 18.5524C28.576 17.3457 28.6682 16.132 28.6982 14.916C28.7431 13.3884 28.6378 11.8601 28.3839 10.3528C28.2078 9.26067 27.8909 8.1955 27.441 7.18339C26.8681 5.92769 26.057 4.88798 24.8075 4.21995C22.8913 3.1953 20.8179 2.73823 18.6812 2.50467C18.0754 2.43937 17.4696 2.40421 16.8613 2.38161C15.6157 2.31799 14.3675 2.32469 13.1227 2.4017C12.2274 2.46753 11.337 2.58662 10.4562 2.75832C9.16087 2.99227 7.90777 3.41545 6.73786 4.01401C6.05962 4.35357 5.44429 4.80446 4.91797 5.34756C4.06497 6.29219 3.43928 7.41618 3.08795 8.63497C2.67116 10.0544 2.44365 11.5218 2.41119 12.9998C2.32964 14.4777 2.34827 15.9594 2.46696 17.4349C2.5408 18.313 2.68918 19.1833 2.91052 20.0367C3.23984 21.3666 3.87872 22.6016 4.77603 23.643C5.74478 24.7055 6.99686 25.4751 8.38792 25.8631C8.56281 25.9158 8.64139 25.9761 8.64139 26.172C8.62618 26.8953 8.64139 27.6186 8.64139 28.3418L8.62872 32.0461Z" fill="#F5F5F5" />
                        <path d="M6.85499 9.6148C6.83725 9.06481 7.13887 8.6655 7.50386 8.30637C7.98524 7.84947 8.51561 7.44609 9.08549 7.10341C9.34536 6.94462 9.65434 6.88412 9.95564 6.93303C10.2569 6.98194 10.5303 7.13697 10.7254 7.36962C11.4149 8.08776 12.0321 8.87083 12.5681 9.70772C12.8336 10.0842 13.034 10.5017 13.1612 10.9433C13.2121 11.1157 13.2154 11.2983 13.1708 11.4724C13.1262 11.6464 13.0354 11.8054 12.9078 11.9328C12.6153 12.2172 12.3037 12.4815 11.975 12.7239C11.8094 12.8547 11.6862 13.0308 11.6209 13.2304C11.5555 13.43 11.5509 13.6443 11.6075 13.8465C11.8105 14.796 12.2705 15.6728 12.9382 16.383C13.7495 17.3644 14.7949 18.13 15.9798 18.6106C16.2709 18.7589 16.6045 18.8041 16.9252 18.7387C17.1008 18.6912 17.2569 18.5902 17.3713 18.4499C17.5487 18.2264 17.7414 18.0104 17.901 17.7718C18.1081 17.4742 18.4244 17.2685 18.7823 17.1986C19.1403 17.1287 19.5117 17.2001 19.8172 17.3976C20.6764 17.8915 21.4876 18.4632 22.2404 19.1053C22.4178 19.256 22.6028 19.4017 22.7803 19.5549C22.9902 19.7135 23.1418 19.936 23.2119 20.1882C23.2819 20.4405 23.2665 20.7085 23.1681 20.9512C23.0115 21.3594 22.7832 21.7369 22.4938 22.0663C22.1343 22.5615 21.6762 22.9785 21.1479 23.2918C20.8954 23.4388 20.6116 23.5251 20.3194 23.5438C20.0271 23.5626 19.7345 23.5133 19.4649 23.3998C17.4142 22.5818 15.4981 21.4653 13.7797 20.0873C12.0989 18.7164 10.6301 17.1087 9.42006 15.3157C8.40187 13.8313 7.59183 12.2168 7.01214 10.5164C6.95041 10.3107 6.89965 10.102 6.86006 9.89106C6.84879 9.79939 6.84709 9.70682 6.85499 9.6148V9.6148Z" fill="#F5F5F5" />
                        <path d="M15.6059 6.94221C17.3216 6.97364 18.9719 7.60072 20.2688 8.71412C21.5658 9.82753 22.4272 11.3566 22.7029 13.0348C22.8139 13.645 22.8733 14.2633 22.8804 14.8832C22.8804 15.0289 22.8423 15.1344 22.6852 15.1494C22.528 15.1645 22.4875 15.0314 22.4875 14.8983C22.511 13.6443 22.2512 12.4009 21.7271 11.2593C21.2857 10.3212 20.6318 9.49666 19.8163 8.84983C19.0008 8.20299 18.0457 7.75129 17.0253 7.52987C16.4858 7.40611 15.9341 7.3421 15.3803 7.33901C15.3264 7.33993 15.2726 7.33316 15.2206 7.31892C15.1764 7.30655 15.1387 7.27765 15.1155 7.2383C15.0923 7.19894 15.0855 7.15222 15.0964 7.10796C15.0967 7.08697 15.1013 7.06625 15.1098 7.04701C15.1183 7.02777 15.1305 7.0104 15.1459 6.9959C15.1612 6.98141 15.1793 6.97009 15.1991 6.9626C15.2189 6.9551 15.24 6.95159 15.2612 6.95226C15.3752 6.93719 15.4918 6.94221 15.6059 6.94221Z" fill="#F5F5F5" />
                        <path d="M20.4988 13.7532C20.4903 13.0555 20.3168 12.3695 19.9924 11.7502C19.668 11.1309 19.2017 10.5955 18.6307 10.187C17.9644 9.72327 17.1897 9.43544 16.3799 9.35075C16.2431 9.33317 16.1062 9.32563 15.9668 9.31057C15.8274 9.2955 15.7437 9.23774 15.7564 9.0971C15.7691 8.95646 15.8578 8.90623 16.0099 8.91628C18.2556 9.05189 20.1667 10.3101 20.7548 12.6532C20.8623 13.105 20.9159 13.5678 20.9145 14.032C20.9145 14.0747 20.9145 14.1174 20.9145 14.1575C20.9145 14.2831 20.8333 14.366 20.7091 14.3635C20.6816 14.3626 20.6545 14.3561 20.6296 14.3445C20.6047 14.3328 20.5824 14.3163 20.5641 14.2958C20.5459 14.2754 20.532 14.2515 20.5234 14.2255C20.5147 14.1996 20.5116 14.1722 20.514 14.145C20.4937 14.027 20.4988 13.9064 20.4988 13.7532Z" fill="#F5F5F5" />
                        <path d="M16.5642 10.9558C17.796 11.0387 18.6553 11.6364 18.891 12.9348C18.9196 13.1011 18.9399 13.2687 18.9518 13.437C18.9518 13.5727 18.9214 13.6882 18.7719 13.6882C18.6223 13.6882 18.5716 13.5877 18.5666 13.437C18.5652 12.9393 18.4104 12.4539 18.123 12.0457C17.821 11.676 17.3873 11.4351 16.9114 11.3727C16.805 11.353 16.6975 11.3395 16.5895 11.3325C16.4121 11.3325 16.3133 11.2446 16.3361 11.109C16.3589 10.9734 16.4653 10.9483 16.5642 10.9558Z" fill="#F5F5F5" />
                    </svg>