<svg width="46" height="46" viewBox="0 0 46 46" fill="none" xmlns="http://www.w3.org/2000/svg">
<path d="M0 45.8216L3.28468 33.6084C0.635667 28.8507 -0.205949 23.2989 0.914264 17.9718C2.03448 12.6446 5.04138 7.89942 9.3832 4.60695C13.725 1.31447 19.1105 -0.304437 24.5514 0.0472986C29.9924 0.399034 35.1238 2.69782 39.004 6.52182C42.8842 10.3458 45.253 15.4385 45.6757 20.8654C46.0984 26.2923 44.5466 31.6894 41.3052 36.0663C38.0637 40.4431 33.3499 43.5062 28.0289 44.6934C22.7078 45.8806 17.1364 45.1123 12.3369 42.5295L0 45.8216ZM12.9318 37.9592L13.6948 38.411C17.1711 40.4681 21.2314 41.3194 25.2429 40.8322C29.2545 40.3449 32.9919 38.5466 35.8728 35.7174C38.7537 32.8882 40.6162 29.187 41.1701 25.1907C41.724 21.1943 40.9382 17.1273 38.9351 13.6234C36.932 10.1195 33.8242 7.37548 30.0959 5.81904C26.3676 4.2626 22.2283 3.98112 18.3231 5.01849C14.4179 6.05585 10.966 8.35378 8.50555 11.5542C6.04506 14.7546 4.7141 18.6776 4.7201 22.712C4.71683 26.0572 5.64351 29.3377 7.39698 32.1883L7.87546 32.9758L6.03915 39.7925L12.9318 37.9592Z" fill="#00D95F"/>
<path fill-rule="evenodd" clip-rule="evenodd" d="M31.4498 25.8481C31.0025 25.488 30.4788 25.2345 29.9185 25.1069C29.3583 24.9794 28.7763 24.9812 28.2168 25.1122C27.3762 25.4608 26.8331 26.7777 26.29 27.4361C26.1754 27.5939 26.0071 27.7046 25.8167 27.7474C25.6262 27.7902 25.4266 27.7621 25.2554 27.6685C22.1781 26.4652 19.5986 24.2585 17.936 21.407C17.7942 21.229 17.7271 21.0031 17.7488 20.7767C17.7705 20.5504 17.8794 20.3412 18.0524 20.1934C18.6582 19.5947 19.103 18.8531 19.3456 18.0373C19.3995 17.1375 19.193 16.2412 18.7507 15.4553C18.4088 14.3535 17.7582 13.3724 16.8756 12.6279C16.4204 12.4235 15.9157 12.355 15.4224 12.4306C14.929 12.5062 14.4681 12.7227 14.0953 13.054C13.448 13.6115 12.9342 14.3069 12.5918 15.0889C12.2494 15.8709 12.0871 16.7196 12.1167 17.5726C12.1187 18.0516 12.1795 18.5285 12.2978 18.9927C12.5981 20.108 13.0598 21.1736 13.6685 22.1558C14.1077 22.9081 14.5869 23.6364 15.104 24.3376C16.7845 26.6408 18.897 28.5963 21.3242 30.0956C22.5421 30.8575 23.8439 31.477 25.2037 31.9418C26.6163 32.5811 28.1759 32.8264 29.7169 32.6519C30.5949 32.5192 31.4268 32.1731 32.1394 31.6441C32.852 31.115 33.4234 30.4192 33.8033 29.6179C34.0266 29.1339 34.0943 28.5927 33.9973 28.0687C33.7645 26.9971 32.3291 26.3645 31.4498 25.8481Z" fill="#00D95F"/>
</svg>
