<svg width="51" height="38" viewBox="0 0 51 38" fill="none" xmlns="http://www.w3.org/2000/svg">
<path d="M7.76102 0.5H32.5354C33.9159 0.500238 35.0354 1.61944 35.0354 3V37.376H5.26102V3C5.26102 1.61929 6.38031 0.5 7.76102 0.5Z" fill="white" fill-opacity="0.5" stroke="#1E1E1E"/>
<path d="M21.4909 7.12824H46.738C48.1187 7.12824 49.238 8.24753 49.238 9.62824V37.3753H18.9909V9.62824C18.9909 8.24753 20.1102 7.12824 21.4909 7.12824Z" fill="white" stroke="#1E1E1E"/>
<rect x="1.43588" y="37.25" width="48.5" height="0.5" stroke="#1E1E1E" stroke-width="0.5"/>
<path d="M9.02628 34.5615C8.62006 34.5625 8.22431 34.4327 7.89747 34.1915C7.57063 33.9503 7.33001 33.6104 7.21114 33.2219C7.09228 32.8335 7.10146 32.4171 7.23734 32.0343C7.37322 31.6515 7.62859 31.3225 7.96576 31.0959C7.75788 30.8362 7.633 30.5199 7.60737 30.1882C7.58173 29.8565 7.65653 29.5248 7.82202 29.2362C7.98752 28.9476 8.23605 28.7155 8.53527 28.5701C8.8345 28.4247 9.17056 28.3727 9.49972 28.421V28.4067C9.49972 28.0301 9.64936 27.6688 9.91573 27.4024C10.1821 27.1361 10.5434 26.9864 10.9201 26.9864C11.2968 26.9864 11.658 27.1361 11.9244 27.4024C12.1908 27.6688 12.3404 28.0301 12.3404 28.4067V28.4257C12.6696 28.3775 13.0056 28.4294 13.3048 28.5748C13.6041 28.7202 13.8526 28.9523 14.0181 29.2409C14.1836 29.5295 14.2584 29.8612 14.2328 30.1929C14.2071 30.5246 14.0822 30.8409 13.8744 31.1007C14.2094 31.328 14.4628 31.6567 14.5973 32.0386C14.7318 32.4205 14.7404 32.8355 14.6217 33.2226C14.5031 33.6097 14.2635 33.9487 13.9382 34.1896C13.6128 34.4306 13.2187 34.561 12.8138 34.5615H9.02628Z" fill="#76B966"/>
<path d="M10.9201 34.5615L10.9158 37.4022L10.9201 34.5615Z" fill="#76B966"/>
<path d="M10.9201 34.5615L10.9158 37.4022M9.02628 34.5615C8.62006 34.5625 8.22431 34.4327 7.89747 34.1915C7.57063 33.9503 7.33001 33.6104 7.21114 33.2219C7.09227 32.8335 7.10146 32.4171 7.23734 32.0343C7.37322 31.6515 7.62859 31.3225 7.96576 31.0959C7.75788 30.8362 7.633 30.5199 7.60737 30.1882C7.58173 29.8565 7.65653 29.5248 7.82202 29.2362C7.98752 28.9476 8.23605 28.7155 8.53527 28.5701C8.8345 28.4247 9.17056 28.3727 9.49972 28.421V28.4067C9.49972 28.0301 9.64936 27.6688 9.91573 27.4024C10.1821 27.1361 10.5434 26.9864 10.9201 26.9864C11.2968 26.9864 11.658 27.1361 11.9244 27.4024C12.1908 27.6688 12.3404 28.0301 12.3404 28.4067V28.4257C12.6696 28.3775 13.0056 28.4294 13.3048 28.5748C13.6041 28.7202 13.8526 28.9523 14.0181 29.2409C14.1836 29.5295 14.2584 29.8612 14.2328 30.1929C14.2071 30.5246 14.0822 30.8409 13.8744 31.1007C14.2094 31.328 14.4628 31.6567 14.5973 32.0386C14.7318 32.4205 14.7404 32.8355 14.6217 33.2226C14.5031 33.6097 14.2635 33.9487 13.9382 34.1896C13.6128 34.4306 13.2187 34.561 12.8138 34.5615H9.02628Z" stroke="#1E1E1E" stroke-linecap="round" stroke-linejoin="round"/>
<path d="M1.92324 35.3363C1.61864 35.3369 1.32189 35.2426 1.0768 35.0671C0.831717 34.8917 0.651289 34.6445 0.562156 34.362C0.473024 34.0795 0.479911 33.7767 0.581802 33.4983C0.683692 33.2199 0.875186 32.9806 1.12801 32.8158C0.972133 32.6269 0.87849 32.3969 0.859267 32.1557C0.840044 31.9144 0.896131 31.6732 1.02023 31.4633C1.14433 31.2534 1.33069 31.0846 1.55506 30.9788C1.77944 30.8731 2.03143 30.8353 2.27826 30.8704V30.8601C2.27826 30.5861 2.39047 30.3234 2.5902 30.1296C2.78994 29.9359 3.06084 29.8271 3.3433 29.8271C3.62577 29.8271 3.89667 29.9359 4.09641 30.1296C4.29614 30.3234 4.40835 30.5861 4.40835 30.8601V30.8738C4.65518 30.8388 4.90717 30.8765 5.13155 30.9823C5.35592 31.088 5.54228 31.2568 5.66638 31.4667C5.79048 31.6766 5.84656 31.9179 5.82734 32.1591C5.80812 32.4003 5.71448 32.6304 5.5586 32.8193C5.80984 32.9846 5.99983 33.2237 6.1007 33.5014C6.20156 33.7792 6.20799 34.0809 6.11903 34.3625C6.03008 34.644 5.85043 34.8905 5.60644 35.0658C5.36246 35.241 5.06698 35.3358 4.76337 35.3363H1.92324Z" fill="#76B966"/>
<path d="M3.3433 35.3363L3.34012 37.4022L3.3433 35.3363Z" fill="#76B966"/>
<path d="M3.3433 35.3363L3.34012 37.4022M1.92324 35.3363C1.61864 35.3369 1.32189 35.2426 1.0768 35.0671C0.831717 34.8917 0.651289 34.6445 0.562156 34.362C0.473024 34.0795 0.479911 33.7767 0.581802 33.4983C0.683692 33.2199 0.875186 32.9806 1.12801 32.8158C0.972133 32.6269 0.87849 32.3969 0.859267 32.1557C0.840044 31.9144 0.896131 31.6732 1.02023 31.4633C1.14433 31.2534 1.33069 31.0846 1.55506 30.9788C1.77944 30.8731 2.03143 30.8353 2.27826 30.8704V30.8601C2.27826 30.5861 2.39047 30.3234 2.5902 30.1296C2.78994 29.9359 3.06084 29.8271 3.3433 29.8271C3.62577 29.8271 3.89667 29.9359 4.09641 30.1296C4.29614 30.3234 4.40835 30.5861 4.40835 30.8601V30.8738C4.65518 30.8388 4.90717 30.8765 5.13155 30.9823C5.35592 31.088 5.54228 31.2568 5.66638 31.4667C5.79048 31.6766 5.84656 31.9179 5.82734 32.1591C5.80812 32.4003 5.71448 32.6304 5.5586 32.8193C5.80984 32.9846 5.99983 33.2237 6.1007 33.5014C6.20156 33.7792 6.20799 34.0809 6.11903 34.3625C6.03008 34.644 5.85043 34.8905 5.60644 35.0658C5.36246 35.241 5.06698 35.3358 4.76337 35.3363H1.92324Z" stroke="#1E1E1E" stroke-linecap="round" stroke-linejoin="round"/>
</svg>
