<svg width="65" height="38" viewBox="0 0 65 38" fill="none" xmlns="http://www.w3.org/2000/svg">
<path d="M10.5751 0.5H35.3495C36.7301 0.500238 37.8495 1.61944 37.8495 3V37.376H8.07513V3C8.07514 1.61929 9.19442 0.5 10.5751 0.5Z" fill="white" fill-opacity="0.5" stroke="#1E1E1E"/>
<path d="M24.3051 7.12824H49.5521C50.9328 7.12824 52.0521 8.24753 52.0521 9.62824V37.3753H21.8051V9.62824C21.8051 8.24753 22.9243 7.12824 24.3051 7.12824Z" fill="white" stroke="#1E1E1E"/>
<rect x="0.163793" y="37.5086" width="64.5345" height="0.327586" stroke="#1E1E1E" stroke-width="0.327586"/>
<path d="M11.8404 34.5615C11.4342 34.5625 11.0384 34.4327 10.7116 34.1915C10.3847 33.9503 10.1441 33.6104 10.0253 33.2219C9.90639 32.8335 9.91558 32.4171 10.0515 32.0343C10.1873 31.6515 10.4427 31.3225 10.7799 31.0959C10.572 30.8362 10.4471 30.5199 10.4215 30.1882C10.3958 29.8565 10.4706 29.5248 10.6361 29.2362C10.8016 28.9476 11.0502 28.7155 11.3494 28.5701C11.6486 28.4247 11.9847 28.3727 12.3138 28.421V28.4067C12.3138 28.0301 12.4635 27.6688 12.7298 27.4024C12.9962 27.1361 13.3575 26.9864 13.7342 26.9864C14.1109 26.9864 14.4721 27.1361 14.7385 27.4024C15.0049 27.6688 15.1545 28.0301 15.1545 28.4067V28.4257C15.4837 28.3775 15.8197 28.4294 16.119 28.5748C16.4182 28.7202 16.6667 28.9523 16.8322 29.2409C16.9977 29.5295 17.0725 29.8612 17.0469 30.1929C17.0212 30.5246 16.8964 30.8409 16.6885 31.1007C17.0235 31.328 17.2769 31.6567 17.4114 32.0386C17.5459 32.4205 17.5545 32.8355 17.4359 33.2226C17.3172 33.6097 17.0777 33.9487 16.7523 34.1896C16.4269 34.4306 16.0329 34.561 15.628 34.5615H11.8404Z" fill="#76B966"/>
<path d="M13.7342 34.5615L13.7299 37.4022L13.7342 34.5615Z" fill="#76B966"/>
<path d="M13.7342 34.5615L13.7299 37.4022M11.8404 34.5615C11.4342 34.5625 11.0384 34.4327 10.7116 34.1915C10.3847 33.9503 10.1441 33.6104 10.0253 33.2219C9.90639 32.8335 9.91558 32.4171 10.0515 32.0343C10.1873 31.6515 10.4427 31.3225 10.7799 31.0959C10.572 30.8362 10.4471 30.5199 10.4215 30.1882C10.3958 29.8565 10.4706 29.5248 10.6361 29.2362C10.8016 28.9476 11.0502 28.7155 11.3494 28.5701C11.6486 28.4247 11.9847 28.3727 12.3138 28.421V28.4067C12.3138 28.0301 12.4635 27.6688 12.7298 27.4024C12.9962 27.1361 13.3575 26.9864 13.7342 26.9864C14.1109 26.9864 14.4721 27.1361 14.7385 27.4024C15.0049 27.6688 15.1545 28.0301 15.1545 28.4067V28.4257C15.4837 28.3775 15.8197 28.4294 16.119 28.5748C16.4182 28.7202 16.6667 28.9523 16.8322 29.2409C16.9977 29.5295 17.0725 29.8612 17.0469 30.1929C17.0212 30.5246 16.8964 30.8409 16.6885 31.1007C17.0235 31.328 17.2769 31.6567 17.4114 32.0386C17.5459 32.4205 17.5545 32.8355 17.4359 33.2226C17.3172 33.6097 17.0777 33.9487 16.7523 34.1896C16.4269 34.4306 16.0329 34.561 15.628 34.5615H11.8404Z" stroke="#1E1E1E" stroke-linecap="round" stroke-linejoin="round"/>
<path d="M4.73736 35.3363C4.43276 35.3369 4.136 35.2426 3.89092 35.0671C3.64583 34.8917 3.46541 34.6445 3.37627 34.362C3.28714 34.0795 3.29403 33.7767 3.39592 33.4983C3.49781 33.2199 3.6893 32.9806 3.94213 32.8158C3.78625 32.6269 3.69261 32.3969 3.67338 32.1557C3.65416 31.9144 3.71025 31.6732 3.83435 31.4633C3.95844 31.2534 4.1448 31.0846 4.36918 30.9788C4.59355 30.8731 4.84555 30.8353 5.09238 30.8704V30.8601C5.09238 30.5861 5.20459 30.3234 5.40432 30.1296C5.60406 29.9359 5.87495 29.8271 6.15742 29.8271C6.43989 29.8271 6.71079 29.9359 6.91052 30.1296C7.11026 30.3234 7.22247 30.5861 7.22247 30.8601V30.8738C7.46929 30.8388 7.72129 30.8765 7.94567 30.9823C8.17004 31.088 8.3564 31.2568 8.4805 31.4667C8.6046 31.6766 8.66068 31.9179 8.64146 32.1591C8.62224 32.4003 8.52859 32.6304 8.37272 32.8193C8.62396 32.9846 8.81395 33.2237 8.91481 33.5014C9.01568 33.7792 9.0221 34.0809 8.93315 34.3625C8.8442 34.644 8.66455 34.8905 8.42056 35.0658C8.17657 35.241 7.8811 35.3358 7.57748 35.3363H4.73736Z" fill="#76B966"/>
<path d="M6.15742 35.3363L6.15424 37.4022L6.15742 35.3363Z" fill="#76B966"/>
<path d="M6.15742 35.3363L6.15424 37.4022M4.73736 35.3363C4.43276 35.3369 4.136 35.2426 3.89092 35.0671C3.64583 34.8917 3.46541 34.6445 3.37627 34.362C3.28714 34.0795 3.29403 33.7767 3.39592 33.4983C3.49781 33.2199 3.6893 32.9806 3.94213 32.8158C3.78625 32.6269 3.69261 32.3969 3.67338 32.1557C3.65416 31.9144 3.71025 31.6732 3.83435 31.4633C3.95844 31.2534 4.1448 31.0846 4.36918 30.9788C4.59355 30.8731 4.84555 30.8353 5.09238 30.8704V30.8601C5.09238 30.5861 5.20459 30.3234 5.40432 30.1296C5.60406 29.9359 5.87495 29.8271 6.15742 29.8271C6.43989 29.8271 6.71079 29.9359 6.91052 30.1296C7.11026 30.3234 7.22247 30.5861 7.22247 30.8601V30.8738C7.46929 30.8388 7.72129 30.8765 7.94567 30.9823C8.17004 31.088 8.3564 31.2568 8.4805 31.4667C8.6046 31.6766 8.66068 31.9179 8.64146 32.1591C8.62224 32.4003 8.52859 32.6304 8.37272 32.8193C8.62396 32.9846 8.81395 33.2237 8.91481 33.5014C9.01568 33.7792 9.0221 34.0809 8.93315 34.3625C8.8442 34.644 8.66455 34.8905 8.42056 35.0658C8.17657 35.241 7.8811 35.3358 7.57748 35.3363H4.73736Z" stroke="#1E1E1E" stroke-linecap="round" stroke-linejoin="round"/>
</svg>
